<svg width="1192" height="817" viewBox="0 0 1192 817" fill="none" xmlns="http://www.w3.org/2000/svg">
<rect x="39" y="28" width="514" height="748" rx="10" fill="#F9FAFB"/>
<path d="M183.273 101V76.952H191.193C193.161 76.952 194.985 77.156 196.665 77.564C198.369 77.948 199.845 78.608 201.093 79.544C202.365 80.456 203.349 81.692 204.045 83.252C204.765 84.788 205.125 86.696 205.125 88.976C205.125 91.28 204.765 93.2 204.045 94.736C203.349 96.272 202.365 97.508 201.093 98.444C199.845 99.356 198.369 100.016 196.665 100.424C194.985 100.808 193.161 101 191.193 101H183.273ZM188.961 96.212H191.301C192.333 96.212 193.317 96.128 194.253 95.96C195.213 95.792 196.065 95.468 196.809 94.988C197.577 94.484 198.177 93.752 198.609 92.792C199.041 91.832 199.257 90.56 199.257 88.976C199.257 87.392 199.041 86.12 198.609 85.16C198.177 84.176 197.577 83.444 196.809 82.964C196.065 82.46 195.213 82.124 194.253 81.956C193.317 81.764 192.333 81.668 191.301 81.668H188.961V96.212ZM213.389 80.192C212.501 80.192 211.733 79.88 211.085 79.256C210.461 78.608 210.149 77.84 210.149 76.952C210.149 76.04 210.461 75.272 211.085 74.648C211.733 74.024 212.501 73.712 213.389 73.712C214.301 73.712 215.069 74.024 215.693 74.648C216.317 75.272 216.629 76.04 216.629 76.952C216.629 77.84 216.317 78.608 215.693 79.256C215.069 79.88 214.301 80.192 213.389 80.192ZM210.617 101V87.32H207.233V83.144H216.125V101H210.617ZM219.525 101V83.144H223.845L224.817 86.42C225.369 84.98 226.125 83.972 227.085 83.396C228.045 82.82 229.209 82.568 230.577 82.64V88.112C230.289 88.064 230.037 88.04 229.821 88.04C229.605 88.016 229.365 88.004 229.101 88.004C227.781 88.004 226.761 88.316 226.041 88.94C225.345 89.564 224.997 90.584 224.997 92V101H219.525ZM241.775 101.432C239.855 101.432 238.151 101.06 236.663 100.316C235.199 99.548 234.047 98.456 233.207 97.04C232.391 95.624 231.983 93.932 231.983 91.964C231.983 90.068 232.415 88.424 233.279 87.032C234.167 85.64 235.331 84.56 236.771 83.792C238.235 83.024 239.831 82.64 241.559 82.64C243.527 82.64 245.207 83.108 246.599 84.044C248.015 84.956 249.083 86.228 249.803 87.86C250.523 89.468 250.823 91.328 250.703 93.44H237.491C237.587 94.688 238.043 95.624 238.859 96.248C239.699 96.872 240.623 97.184 241.631 97.184C242.471 97.184 243.191 97.064 243.791 96.824C244.415 96.56 244.895 96.236 245.231 95.852L249.587 97.436C248.651 98.804 247.475 99.812 246.059 100.46C244.667 101.108 243.239 101.432 241.775 101.432ZM237.491 90.2H245.627C245.603 89.048 245.207 88.184 244.439 87.608C243.671 87.008 242.759 86.708 241.703 86.708C240.671 86.708 239.747 86.984 238.931 87.536C238.139 88.088 237.659 88.976 237.491 90.2ZM261.518 101.432C259.55 101.432 257.882 101.036 256.514 100.244C255.17 99.452 254.138 98.348 253.418 96.932C252.722 95.492 252.374 93.836 252.374 91.964C252.374 90.092 252.758 88.46 253.526 87.068C254.294 85.652 255.362 84.56 256.73 83.792C258.122 83.024 259.718 82.64 261.518 82.64C262.55 82.64 263.57 82.784 264.578 83.072C265.61 83.36 266.558 83.852 267.422 84.548C268.31 85.22 269.03 86.144 269.582 87.32L265.01 88.976C264.722 88.208 264.29 87.668 263.714 87.356C263.162 87.044 262.538 86.888 261.842 86.888C261.194 86.888 260.57 87.056 259.97 87.392C259.37 87.704 258.878 88.232 258.494 88.976C258.134 89.72 257.954 90.728 257.954 92C257.954 93.296 258.146 94.328 258.53 95.096C258.914 95.84 259.394 96.38 259.97 96.716C260.57 97.028 261.194 97.184 261.842 97.184C262.61 97.184 263.258 97.04 263.786 96.752C264.314 96.44 264.734 96.02 265.046 95.492L269.51 97.112C268.91 98.192 268.166 99.056 267.278 99.704C266.39 100.328 265.442 100.772 264.434 101.036C263.45 101.3 262.478 101.432 261.518 101.432ZM279.537 101C278.073 101 276.909 100.88 276.045 100.64C275.181 100.376 274.557 99.884 274.173 99.164C273.813 98.42 273.633 97.352 273.633 95.96V87.32H270.681V83.144H273.633V78.68H279.105V83.144H282.993V87.32H279.105V94.52C279.105 95.36 279.261 95.912 279.573 96.176C279.909 96.416 280.521 96.536 281.409 96.536H282.993V101H279.537ZM290.874 80.192C289.986 80.192 289.218 79.88 288.57 79.256C287.946 78.608 287.634 77.84 287.634 76.952C287.634 76.04 287.946 75.272 288.57 74.648C289.218 74.024 289.986 73.712 290.874 73.712C291.786 73.712 292.554 74.024 293.178 74.648C293.802 75.272 294.114 76.04 294.114 76.952C294.114 77.84 293.802 78.608 293.178 79.256C292.554 79.88 291.786 80.192 290.874 80.192ZM288.102 101V87.32H284.718V83.144H293.61V101H288.102ZM305.541 101.432C303.885 101.432 302.337 101.096 300.897 100.424C299.457 99.752 298.293 98.72 297.405 97.328C296.517 95.912 296.073 94.136 296.073 92C296.073 89.84 296.517 88.076 297.405 86.708C298.293 85.316 299.457 84.296 300.897 83.648C302.337 82.976 303.885 82.64 305.541 82.64C307.173 82.64 308.709 82.976 310.149 83.648C311.589 84.296 312.753 85.316 313.641 86.708C314.529 88.076 314.973 89.84 314.973 92C314.973 94.136 314.529 95.912 313.641 97.328C312.753 98.72 311.589 99.752 310.149 100.424C308.709 101.096 307.173 101.432 305.541 101.432ZM305.541 97.184C306.645 97.184 307.557 96.788 308.277 95.996C309.021 95.204 309.393 93.872 309.393 92C309.393 90.104 309.009 88.784 308.241 88.04C307.497 87.272 306.597 86.888 305.541 86.888C304.461 86.888 303.537 87.272 302.769 88.04C302.025 88.784 301.653 90.104 301.653 92C301.653 93.872 302.025 95.204 302.769 95.996C303.513 96.788 304.437 97.184 305.541 97.184ZM317.646 101V83.144H322.434L323.118 85.52C323.526 84.848 324.198 84.2 325.134 83.576C326.094 82.952 327.258 82.64 328.626 82.64C330.93 82.64 332.502 83.288 333.342 84.584C334.206 85.856 334.638 87.704 334.638 90.128V101H329.166V91.496C329.166 90.656 329.118 89.888 329.022 89.192C328.926 88.496 328.686 87.944 328.302 87.536C327.942 87.104 327.318 86.888 326.43 86.888C325.278 86.888 324.438 87.308 323.91 88.148C323.382 88.964 323.118 90.188 323.118 91.82V101H317.646ZM343.467 101.432C342.339 101.432 341.307 101.216 340.371 100.784C339.435 100.352 338.691 99.752 338.139 98.984C337.587 98.192 337.311 97.256 337.311 96.176C337.311 94.712 337.815 93.548 338.823 92.684C339.855 91.82 341.259 91.172 343.035 90.74C344.811 90.308 346.851 90.008 349.155 89.84C349.155 88.568 348.951 87.668 348.543 87.14C348.135 86.612 347.343 86.348 346.167 86.348C345.423 86.348 344.763 86.528 344.187 86.888C343.635 87.224 343.263 87.752 343.071 88.472L338.463 86.816C339.063 85.616 340.059 84.62 341.451 83.828C342.867 83.036 344.595 82.64 346.635 82.64C349.179 82.64 351.135 83.204 352.503 84.332C353.871 85.46 354.555 87.38 354.555 90.092V94.016C354.555 94.784 354.579 95.612 354.627 96.5C354.675 97.388 354.747 98.228 354.843 99.02C354.939 99.812 355.047 100.472 355.167 101H350.091L349.443 98.84C348.771 99.776 347.919 100.448 346.887 100.856C345.879 101.24 344.739 101.432 343.467 101.432ZM345.483 97.688C346.563 97.688 347.463 97.4 348.183 96.824C348.903 96.248 349.263 95.144 349.263 93.512V93.08C347.367 93.248 345.843 93.512 344.691 93.872C343.539 94.208 342.963 94.844 342.963 95.78C342.963 96.356 343.203 96.824 343.683 97.184C344.163 97.52 344.763 97.688 345.483 97.688ZM364.05 101C362.586 101 361.422 100.88 360.558 100.64C359.694 100.376 359.07 99.884 358.686 99.164C358.326 98.42 358.146 97.352 358.146 95.96V76.952H363.618V94.52C363.618 95.36 363.786 95.912 364.122 96.176C364.458 96.416 365.082 96.536 365.994 96.536H367.542V101H364.05ZM373.702 80.192C372.814 80.192 372.046 79.88 371.398 79.256C370.774 78.608 370.462 77.84 370.462 76.952C370.462 76.04 370.774 75.272 371.398 74.648C372.046 74.024 372.814 73.712 373.702 73.712C374.614 73.712 375.382 74.024 376.006 74.648C376.63 75.272 376.942 76.04 376.942 76.952C376.942 77.84 376.63 78.608 376.006 79.256C375.382 79.88 374.614 80.192 373.702 80.192ZM370.93 101V87.32H367.546V83.144H376.438V101H370.93ZM387.361 101C385.897 101 384.733 100.88 383.869 100.64C383.005 100.376 382.381 99.884 381.997 99.164C381.637 98.42 381.457 97.352 381.457 95.96V87.32H378.505V83.144H381.457V78.68H386.929V83.144H390.817V87.32H386.929V94.52C386.929 95.36 387.085 95.912 387.397 96.176C387.733 96.416 388.345 96.536 389.233 96.536H390.817V101H387.361ZM394.018 106.796V102.836H395.098C395.914 102.836 396.526 102.8 396.934 102.728C397.342 102.656 397.654 102.476 397.87 102.188C398.11 101.924 398.326 101.492 398.518 100.892L391.678 83.144H397.546L401.038 94.304L404.458 83.144H410.326L403.486 101C402.91 102.512 402.322 103.688 401.722 104.528C401.146 105.368 400.402 105.956 399.49 106.292C398.578 106.628 397.342 106.796 395.782 106.796H394.018Z" fill="#1B2250"/>
<rect x="625" y="28" width="514" height="748" rx="10" fill="#F9FAFB"/>
<path d="M815.046 101.432C812.43 101.432 810.222 100.904 808.422 99.848C806.646 98.768 805.386 97.268 804.642 95.348L809.826 93.476C810.162 94.628 810.786 95.48 811.698 96.032C812.634 96.584 813.762 96.86 815.082 96.86C815.778 96.86 816.45 96.788 817.098 96.644C817.746 96.476 818.286 96.212 818.718 95.852C819.15 95.468 819.366 94.964 819.366 94.34C819.366 93.5 818.958 92.852 818.142 92.396C817.326 91.916 816.27 91.556 814.974 91.316L812.058 90.74C810.762 90.476 809.55 90.08 808.422 89.552C807.318 89 806.43 88.28 805.758 87.392C805.086 86.48 804.75 85.34 804.75 83.972C804.75 82.676 805.05 81.56 805.65 80.624C806.25 79.688 807.042 78.92 808.026 78.32C809.034 77.72 810.138 77.276 811.338 76.988C812.538 76.676 813.738 76.52 814.938 76.52C816.234 76.52 817.482 76.7 818.682 77.06C819.906 77.42 820.998 77.984 821.958 78.752C822.918 79.496 823.65 80.492 824.154 81.74L819.006 83.612C818.694 82.796 818.13 82.172 817.314 81.74C816.522 81.308 815.562 81.092 814.434 81.092C813.33 81.092 812.406 81.296 811.662 81.704C810.942 82.088 810.582 82.652 810.582 83.396C810.582 83.996 810.834 84.512 811.338 84.944C811.842 85.376 812.502 85.676 813.318 85.844L816.558 86.492C817.542 86.684 818.538 86.936 819.546 87.248C820.554 87.536 821.478 87.932 822.318 88.436C823.182 88.916 823.878 89.564 824.406 90.38C824.934 91.196 825.198 92.228 825.198 93.476C825.198 94.748 824.898 95.888 824.298 96.896C823.722 97.88 822.942 98.708 821.958 99.38C820.998 100.052 819.918 100.568 818.718 100.928C817.518 101.264 816.294 101.432 815.046 101.432ZM835.355 101C833.891 101 832.727 100.88 831.863 100.64C830.999 100.376 830.375 99.884 829.991 99.164C829.631 98.42 829.451 97.352 829.451 95.96V87.32H826.499V83.144H829.451V78.68H834.923V83.144H838.811V87.32H834.923V94.52C834.923 95.36 835.079 95.912 835.391 96.176C835.727 96.416 836.339 96.536 837.227 96.536H838.811V101H835.355ZM841.472 101V83.144H845.792L846.764 86.42C847.316 84.98 848.072 83.972 849.032 83.396C849.992 82.82 851.156 82.568 852.524 82.64V88.112C852.236 88.064 851.984 88.04 851.768 88.04C851.552 88.016 851.312 88.004 851.048 88.004C849.728 88.004 848.708 88.316 847.988 88.94C847.292 89.564 846.944 90.584 846.944 92V101H841.472ZM861.058 101.432C859.474 101.432 858.226 101.144 857.314 100.568C856.426 99.968 855.79 99.104 855.406 97.976C855.046 96.848 854.866 95.48 854.866 93.872V83.144H860.338V93.116C860.338 94.748 860.578 95.84 861.058 96.392C861.562 96.92 862.258 97.184 863.146 97.184C864.226 97.184 865.006 96.824 865.486 96.104C865.99 95.384 866.242 94.196 866.242 92.54V83.144H871.75V101H866.998L866.242 98.48C865.714 99.368 865.054 100.088 864.262 100.64C863.494 101.168 862.426 101.432 861.058 101.432ZM883.606 101.432C881.638 101.432 879.97 101.036 878.602 100.244C877.258 99.452 876.226 98.348 875.506 96.932C874.81 95.492 874.462 93.836 874.462 91.964C874.462 90.092 874.846 88.46 875.614 87.068C876.382 85.652 877.45 84.56 878.818 83.792C880.21 83.024 881.806 82.64 883.606 82.64C884.638 82.64 885.658 82.784 886.666 83.072C887.698 83.36 888.646 83.852 889.51 84.548C890.398 85.22 891.118 86.144 891.67 87.32L887.098 88.976C886.81 88.208 886.378 87.668 885.802 87.356C885.25 87.044 884.626 86.888 883.93 86.888C883.282 86.888 882.658 87.056 882.058 87.392C881.458 87.704 880.966 88.232 880.582 88.976C880.222 89.72 880.042 90.728 880.042 92C880.042 93.296 880.234 94.328 880.618 95.096C881.002 95.84 881.482 96.38 882.058 96.716C882.658 97.028 883.282 97.184 883.93 97.184C884.698 97.184 885.346 97.04 885.874 96.752C886.402 96.44 886.822 96.02 887.134 95.492L891.598 97.112C890.998 98.192 890.254 99.056 889.366 99.704C888.478 100.328 887.53 100.772 886.522 101.036C885.538 101.3 884.566 101.432 883.606 101.432ZM901.625 101C900.161 101 898.997 100.88 898.133 100.64C897.269 100.376 896.645 99.884 896.261 99.164C895.901 98.42 895.721 97.352 895.721 95.96V87.32H892.769V83.144H895.721V78.68H901.193V83.144H905.081V87.32H901.193V94.52C901.193 95.36 901.349 95.912 901.661 96.176C901.997 96.416 902.609 96.536 903.497 96.536H905.081V101H901.625ZM913.933 101.432C912.349 101.432 911.101 101.144 910.189 100.568C909.301 99.968 908.665 99.104 908.281 97.976C907.921 96.848 907.741 95.48 907.741 93.872V83.144H913.213V93.116C913.213 94.748 913.453 95.84 913.933 96.392C914.437 96.92 915.133 97.184 916.021 97.184C917.101 97.184 917.881 96.824 918.361 96.104C918.865 95.384 919.117 94.196 919.117 92.54V83.144H924.625V101H919.873L919.117 98.48C918.589 99.368 917.929 100.088 917.137 100.64C916.369 101.168 915.301 101.432 913.933 101.432ZM928.273 101V83.144H932.593L933.565 86.42C934.117 84.98 934.873 83.972 935.833 83.396C936.793 82.82 937.957 82.568 939.325 82.64V88.112C939.037 88.064 938.785 88.04 938.569 88.04C938.353 88.016 938.113 88.004 937.849 88.004C936.529 88.004 935.509 88.316 934.789 88.94C934.093 89.564 933.745 90.584 933.745 92V101H928.273ZM950.523 101.432C948.603 101.432 946.899 101.06 945.411 100.316C943.947 99.548 942.795 98.456 941.955 97.04C941.139 95.624 940.731 93.932 940.731 91.964C940.731 90.068 941.163 88.424 942.027 87.032C942.915 85.64 944.079 84.56 945.519 83.792C946.983 83.024 948.579 82.64 950.307 82.64C952.275 82.64 953.955 83.108 955.347 84.044C956.763 84.956 957.831 86.228 958.551 87.86C959.271 89.468 959.571 91.328 959.451 93.44H946.239C946.335 94.688 946.791 95.624 947.607 96.248C948.447 96.872 949.371 97.184 950.379 97.184C951.219 97.184 951.939 97.064 952.539 96.824C953.163 96.56 953.643 96.236 953.979 95.852L958.335 97.436C957.399 98.804 956.223 99.812 954.807 100.46C953.415 101.108 951.987 101.432 950.523 101.432ZM946.239 90.2H954.375C954.351 89.048 953.955 88.184 953.187 87.608C952.419 87.008 951.507 86.708 950.451 86.708C949.419 86.708 948.495 86.984 947.679 87.536C946.887 88.088 946.407 88.976 946.239 90.2Z" fill="#1B2250"/>
<rect x="76" y="166" width="440" height="178" rx="10" fill="#6C9AEF"/>
<path d="M156.702 264.98L152.778 261.272C150.714 262.712 148.218 263.432 145.29 263.432C142.842 263.432 140.682 262.916 138.81 261.884C136.938 260.852 135.474 259.4 134.418 257.528C133.362 255.656 132.834 253.472 132.834 250.976C132.834 248.48 133.362 246.296 134.418 244.424C135.474 242.552 136.938 241.1 138.81 240.068C140.682 239.036 142.842 238.52 145.29 238.52C147.762 238.52 149.934 239.036 151.806 240.068C153.678 241.1 155.142 242.552 156.198 244.424C157.278 246.296 157.818 248.48 157.818 250.976C157.818 252.368 157.638 253.664 157.278 254.864C156.942 256.064 156.462 257.156 155.838 258.14L159.69 261.776L156.702 264.98ZM145.29 258.752C146.658 258.752 147.858 258.38 148.89 257.636L143.742 252.74L146.73 249.608L151.374 253.964C151.518 253.508 151.614 253.04 151.662 252.56C151.734 252.056 151.77 251.528 151.77 250.976C151.77 249.272 151.47 247.844 150.87 246.692C150.294 245.54 149.514 244.676 148.53 244.1C147.546 243.5 146.466 243.2 145.29 243.2C144.138 243.2 143.07 243.5 142.086 244.1C141.102 244.676 140.31 245.54 139.71 246.692C139.134 247.844 138.846 249.272 138.846 250.976C138.846 252.68 139.134 254.108 139.71 255.26C140.31 256.412 141.102 257.288 142.086 257.888C143.07 258.464 144.138 258.752 145.29 258.752ZM167.691 263.432C166.107 263.432 164.859 263.144 163.947 262.568C163.059 261.968 162.423 261.104 162.039 259.976C161.679 258.848 161.499 257.48 161.499 255.872V245.144H166.971V255.116C166.971 256.748 167.211 257.84 167.691 258.392C168.195 258.92 168.891 259.184 169.779 259.184C170.859 259.184 171.639 258.824 172.119 258.104C172.623 257.384 172.875 256.196 172.875 254.54V245.144H178.383V263H173.631L172.875 260.48C172.347 261.368 171.687 262.088 170.895 262.64C170.127 263.168 169.059 263.432 167.691 263.432ZM187.25 263.432C186.122 263.432 185.09 263.216 184.154 262.784C183.218 262.352 182.474 261.752 181.922 260.984C181.37 260.192 181.094 259.256 181.094 258.176C181.094 256.712 181.598 255.548 182.606 254.684C183.638 253.82 185.042 253.172 186.818 252.74C188.594 252.308 190.634 252.008 192.938 251.84C192.938 250.568 192.734 249.668 192.326 249.14C191.918 248.612 191.126 248.348 189.95 248.348C189.206 248.348 188.546 248.528 187.97 248.888C187.418 249.224 187.046 249.752 186.854 250.472L182.246 248.816C182.846 247.616 183.842 246.62 185.234 245.828C186.65 245.036 188.378 244.64 190.418 244.64C192.962 244.64 194.918 245.204 196.286 246.332C197.654 247.46 198.338 249.38 198.338 252.092V256.016C198.338 256.784 198.362 257.612 198.41 258.5C198.458 259.388 198.53 260.228 198.626 261.02C198.722 261.812 198.83 262.472 198.95 263H193.874L193.226 260.84C192.554 261.776 191.702 262.448 190.67 262.856C189.662 263.24 188.522 263.432 187.25 263.432ZM189.266 259.688C190.346 259.688 191.246 259.4 191.966 258.824C192.686 258.248 193.046 257.144 193.046 255.512V255.08C191.15 255.248 189.626 255.512 188.474 255.872C187.322 256.208 186.746 256.844 186.746 257.78C186.746 258.356 186.986 258.824 187.466 259.184C187.946 259.52 188.546 259.688 189.266 259.688ZM201.929 263V245.144H206.717L207.401 247.52C207.809 246.848 208.481 246.2 209.417 245.576C210.377 244.952 211.541 244.64 212.909 244.64C215.213 244.64 216.785 245.288 217.625 246.584C218.489 247.856 218.921 249.704 218.921 252.128V263H213.449V253.496C213.449 252.656 213.401 251.888 213.305 251.192C213.209 250.496 212.969 249.944 212.585 249.536C212.225 249.104 211.601 248.888 210.713 248.888C209.561 248.888 208.721 249.308 208.193 250.148C207.665 250.964 207.401 252.188 207.401 253.82V263H201.929ZM230.054 263C228.59 263 227.426 262.88 226.562 262.64C225.698 262.376 225.074 261.884 224.69 261.164C224.33 260.42 224.15 259.352 224.15 257.96V249.32H221.198V245.144H224.15V240.68H229.622V245.144H233.51V249.32H229.622V256.52C229.622 257.36 229.778 257.912 230.09 258.176C230.426 258.416 231.038 258.536 231.926 258.536H233.51V263H230.054ZM241.391 242.192C240.503 242.192 239.735 241.88 239.087 241.256C238.463 240.608 238.151 239.84 238.151 238.952C238.151 238.04 238.463 237.272 239.087 236.648C239.735 236.024 240.503 235.712 241.391 235.712C242.303 235.712 243.071 236.024 243.695 236.648C244.319 237.272 244.631 238.04 244.631 238.952C244.631 239.84 244.319 240.608 243.695 241.256C243.071 241.88 242.303 242.192 241.391 242.192ZM238.619 263V249.32H235.235V245.144H244.127V263H238.619ZM248.859 263V249.32H245.907V245.144H248.859V242.228C248.859 240.812 249.099 239.708 249.579 238.916C250.059 238.124 250.803 237.572 251.811 237.26C252.819 236.948 254.127 236.792 255.735 236.792H258.219V241.112H256.707C255.747 241.112 255.111 241.208 254.799 241.4C254.487 241.592 254.331 242.036 254.331 242.732V245.144H258.219V249.32H254.331V263H248.859ZM261.285 268.796V264.836H262.365C263.181 264.836 263.793 264.8 264.201 264.728C264.609 264.656 264.921 264.476 265.137 264.188C265.377 263.924 265.593 263.492 265.785 262.892L258.945 245.144H264.813L268.305 256.304L271.725 245.144H277.593L270.753 263C270.177 264.512 269.589 265.688 268.989 266.528C268.413 267.368 267.669 267.956 266.757 268.292C265.845 268.628 264.609 268.796 263.049 268.796H261.285ZM285.196 242.192C284.308 242.192 283.54 241.88 282.892 241.256C282.268 240.608 281.956 239.84 281.956 238.952C281.956 238.04 282.268 237.272 282.892 236.648C283.54 236.024 284.308 235.712 285.196 235.712C286.108 235.712 286.876 236.024 287.5 236.648C288.124 237.272 288.436 238.04 288.436 238.952C288.436 239.84 288.124 240.608 287.5 241.256C286.876 241.88 286.108 242.192 285.196 242.192ZM282.424 263V249.32H279.04V245.144H287.932V263H282.424ZM291.331 263V245.144H296.119L296.803 247.52C297.211 246.848 297.883 246.2 298.819 245.576C299.779 244.952 300.943 244.64 302.311 244.64C304.615 244.64 306.187 245.288 307.027 246.584C307.891 247.856 308.323 249.704 308.323 252.128V263H302.851V253.496C302.851 252.656 302.803 251.888 302.707 251.192C302.611 250.496 302.371 249.944 301.987 249.536C301.627 249.104 301.003 248.888 300.115 248.888C298.963 248.888 298.123 249.308 297.595 250.148C297.067 250.964 296.803 252.188 296.803 253.82V263H291.331ZM320.681 270.308C319.697 270.308 318.701 270.176 317.693 269.912C316.685 269.672 315.749 269.24 314.885 268.616C314.021 267.992 313.313 267.14 312.761 266.06L317.225 264.44C317.561 265.088 318.041 265.532 318.665 265.772C319.289 266.012 319.913 266.132 320.537 266.132C321.689 266.132 322.613 265.856 323.309 265.304C324.005 264.776 324.353 263.924 324.353 262.748V259.544C323.585 260.504 322.697 261.212 321.689 261.668C320.705 262.124 319.709 262.352 318.701 262.352C317.405 262.352 316.169 262.004 314.993 261.308C313.817 260.612 312.857 259.616 312.113 258.32C311.369 257.024 310.997 255.476 310.997 253.676C310.997 251.588 311.369 249.884 312.113 248.564C312.857 247.22 313.805 246.224 314.957 245.576C316.109 244.928 317.297 244.604 318.521 244.604C319.649 244.604 320.729 244.856 321.761 245.36C322.817 245.864 323.681 246.608 324.353 247.592L325.073 245.144H329.789V261.668C329.789 264.644 328.985 266.828 327.377 268.22C325.769 269.612 323.537 270.308 320.681 270.308ZM320.645 258.104C321.365 258.104 322.013 257.972 322.589 257.708C323.189 257.42 323.669 256.94 324.029 256.268C324.389 255.596 324.569 254.684 324.569 253.532C324.569 251.78 324.173 250.568 323.381 249.896C322.613 249.224 321.701 248.888 320.645 248.888C319.565 248.888 318.629 249.248 317.837 249.968C317.069 250.688 316.685 251.828 316.685 253.388C316.685 254.972 317.069 256.16 317.837 256.952C318.629 257.72 319.565 258.104 320.645 258.104ZM356.861 263.432C354.413 263.432 352.253 262.916 350.381 261.884C348.509 260.852 347.045 259.4 345.989 257.528C344.933 255.656 344.405 253.472 344.405 250.976C344.405 248.48 344.933 246.296 345.989 244.424C347.045 242.552 348.509 241.1 350.381 240.068C352.253 239.036 354.413 238.52 356.861 238.52C359.333 238.52 361.505 239.036 363.377 240.068C365.249 241.1 366.713 242.552 367.769 244.424C368.849 246.296 369.389 248.48 369.389 250.976C369.389 253.472 368.849 255.656 367.769 257.528C366.713 259.4 365.249 260.852 363.377 261.884C361.505 262.916 359.333 263.432 356.861 263.432ZM356.861 258.752C358.037 258.752 359.117 258.464 360.101 257.888C361.085 257.288 361.865 256.412 362.441 255.26C363.041 254.108 363.341 252.68 363.341 250.976C363.341 249.272 363.041 247.844 362.441 246.692C361.865 245.54 361.085 244.676 360.101 244.1C359.117 243.5 358.037 243.2 356.861 243.2C355.709 243.2 354.641 243.5 353.657 244.1C352.673 244.676 351.881 245.54 351.281 246.692C350.705 247.844 350.417 249.272 350.417 250.976C350.417 252.68 350.705 254.108 351.281 255.26C351.881 256.412 352.673 257.288 353.657 257.888C354.641 258.464 355.709 258.752 356.861 258.752ZM378.629 263.432C377.045 263.432 375.797 263.144 374.885 262.568C373.997 261.968 373.361 261.104 372.977 259.976C372.617 258.848 372.437 257.48 372.437 255.872V245.144H377.909V255.116C377.909 256.748 378.149 257.84 378.629 258.392C379.133 258.92 379.829 259.184 380.717 259.184C381.797 259.184 382.577 258.824 383.057 258.104C383.561 257.384 383.813 256.196 383.813 254.54V245.144H389.321V263H384.569L383.813 260.48C383.285 261.368 382.625 262.088 381.833 262.64C381.065 263.168 379.997 263.432 378.629 263.432ZM400.492 263C399.028 263 397.864 262.88 397 262.64C396.136 262.376 395.512 261.884 395.128 261.164C394.768 260.42 394.588 259.352 394.588 257.96V249.32H391.636V245.144H394.588V240.68H400.06V245.144H403.948V249.32H400.06V256.52C400.06 257.36 400.216 257.912 400.528 258.176C400.864 258.416 401.476 258.536 402.364 258.536H403.948V263H400.492ZM406.609 268.796V245.144H411.361L412.081 247.592C412.657 246.608 413.461 245.876 414.493 245.396C415.549 244.892 416.557 244.64 417.517 244.64C419.053 244.64 420.409 245.024 421.585 245.792C422.785 246.56 423.721 247.652 424.393 249.068C425.065 250.46 425.401 252.128 425.401 254.072C425.401 256.016 425.065 257.696 424.393 259.112C423.721 260.504 422.785 261.572 421.585 262.316C420.409 263.06 419.053 263.432 417.517 263.432C416.557 263.432 415.549 263.18 414.493 262.676C413.461 262.172 412.657 261.428 412.081 260.444V268.796H406.609ZM415.789 259.184C416.845 259.184 417.757 258.752 418.525 257.888C419.317 257.024 419.713 255.752 419.713 254.072C419.713 252.44 419.317 251.168 418.525 250.256C417.757 249.344 416.845 248.888 415.789 248.888C414.709 248.888 413.773 249.272 412.981 250.04C412.213 250.808 411.829 252.116 411.829 253.964C411.829 255.788 412.213 257.12 412.981 257.96C413.773 258.776 414.709 259.184 415.789 259.184ZM434.246 263.432C432.662 263.432 431.414 263.144 430.502 262.568C429.614 261.968 428.978 261.104 428.594 259.976C428.234 258.848 428.054 257.48 428.054 255.872V245.144H433.526V255.116C433.526 256.748 433.766 257.84 434.246 258.392C434.75 258.92 435.446 259.184 436.334 259.184C437.414 259.184 438.194 258.824 438.674 258.104C439.178 257.384 439.43 256.196 439.43 254.54V245.144H444.938V263H440.186L439.43 260.48C438.902 261.368 438.242 262.088 437.45 262.64C436.682 263.168 435.614 263.432 434.246 263.432ZM456.109 263C454.645 263 453.481 262.88 452.617 262.64C451.753 262.376 451.129 261.884 450.745 261.164C450.385 260.42 450.205 259.352 450.205 257.96V249.32H447.253V245.144H450.205V240.68H455.677V245.144H459.565V249.32H455.677V256.52C455.677 257.36 455.833 257.912 456.145 258.176C456.481 258.416 457.093 258.536 457.981 258.536H459.565V263H456.109Z" fill="white"/>
<rect x="78.5" y="373.5" width="435" height="173" rx="7.5" fill="white" stroke="#6C9AEF" stroke-width="5"/>
<path d="M116.329 468.432C113.833 468.432 111.685 467.928 109.885 466.92C108.085 465.912 106.705 464.472 105.745 462.6C104.785 460.728 104.305 458.52 104.305 455.976C104.305 453.432 104.797 451.236 105.781 449.388C106.789 447.516 108.205 446.076 110.029 445.068C111.853 444.036 114.001 443.52 116.473 443.52C118.753 443.52 120.733 444.024 122.413 445.032C124.117 446.04 125.425 447.396 126.337 449.1L121.297 450.936C120.769 449.952 120.049 449.256 119.137 448.848C118.225 448.416 117.277 448.2 116.293 448.2C115.189 448.2 114.181 448.512 113.269 449.136C112.357 449.736 111.637 450.624 111.109 451.8C110.581 452.952 110.317 454.344 110.317 455.976C110.317 458.496 110.893 460.428 112.045 461.772C113.221 463.092 114.661 463.752 116.365 463.752C117.277 463.752 118.213 463.56 119.173 463.176C120.157 462.792 120.925 462.084 121.477 461.052L126.481 462.888C125.521 464.592 124.153 465.948 122.377 466.956C120.625 467.94 118.609 468.432 116.329 468.432ZM137.002 468.432C135.346 468.432 133.798 468.096 132.358 467.424C130.918 466.752 129.754 465.72 128.866 464.328C127.978 462.912 127.534 461.136 127.534 459C127.534 456.84 127.978 455.076 128.866 453.708C129.754 452.316 130.918 451.296 132.358 450.648C133.798 449.976 135.346 449.64 137.002 449.64C138.634 449.64 140.17 449.976 141.61 450.648C143.05 451.296 144.214 452.316 145.102 453.708C145.99 455.076 146.434 456.84 146.434 459C146.434 461.136 145.99 462.912 145.102 464.328C144.214 465.72 143.05 466.752 141.61 467.424C140.17 468.096 138.634 468.432 137.002 468.432ZM137.002 464.184C138.106 464.184 139.018 463.788 139.738 462.996C140.482 462.204 140.854 460.872 140.854 459C140.854 457.104 140.47 455.784 139.702 455.04C138.958 454.272 138.058 453.888 137.002 453.888C135.922 453.888 134.998 454.272 134.23 455.04C133.486 455.784 133.114 457.104 133.114 459C133.114 460.872 133.486 462.204 134.23 462.996C134.974 463.788 135.898 464.184 137.002 464.184ZM149.107 468V450.144H153.895L154.579 452.52C154.987 451.848 155.659 451.2 156.595 450.576C157.531 449.952 158.659 449.64 159.979 449.64C161.395 449.64 162.523 449.892 163.363 450.396C164.227 450.9 164.863 451.644 165.271 452.628C165.967 451.644 166.843 450.9 167.899 450.396C168.979 449.892 170.143 449.64 171.391 449.64C173.671 449.64 175.243 450.288 176.107 451.584C176.971 452.856 177.403 454.704 177.403 457.128V468H171.931V458.496C171.931 457.656 171.883 456.888 171.787 456.192C171.691 455.496 171.451 454.944 171.067 454.536C170.683 454.104 170.047 453.888 169.159 453.888C168.055 453.888 167.251 454.284 166.747 455.076C166.243 455.844 165.991 457.008 165.991 458.568V468H160.483V458.496C160.483 457.656 160.435 456.888 160.339 456.192C160.267 455.496 160.039 454.944 159.655 454.536C159.295 454.104 158.683 453.888 157.819 453.888C156.691 453.888 155.863 454.296 155.335 455.112C154.831 455.928 154.579 457.116 154.579 458.676V468H149.107ZM180.993 473.796V450.144H185.745L186.465 452.592C187.041 451.608 187.845 450.876 188.877 450.396C189.933 449.892 190.941 449.64 191.901 449.64C193.437 449.64 194.793 450.024 195.969 450.792C197.169 451.56 198.105 452.652 198.777 454.068C199.449 455.46 199.785 457.128 199.785 459.072C199.785 461.016 199.449 462.696 198.777 464.112C198.105 465.504 197.169 466.572 195.969 467.316C194.793 468.06 193.437 468.432 191.901 468.432C190.941 468.432 189.933 468.18 188.877 467.676C187.845 467.172 187.041 466.428 186.465 465.444V473.796H180.993ZM190.173 464.184C191.229 464.184 192.141 463.752 192.909 462.888C193.701 462.024 194.097 460.752 194.097 459.072C194.097 457.44 193.701 456.168 192.909 455.256C192.141 454.344 191.229 453.888 190.173 453.888C189.093 453.888 188.157 454.272 187.365 455.04C186.597 455.808 186.213 457.116 186.213 458.964C186.213 460.788 186.597 462.12 187.365 462.96C188.157 463.776 189.093 464.184 190.173 464.184ZM207.659 468.432C206.531 468.432 205.499 468.216 204.563 467.784C203.627 467.352 202.883 466.752 202.331 465.984C201.779 465.192 201.503 464.256 201.503 463.176C201.503 461.712 202.007 460.548 203.015 459.684C204.047 458.82 205.451 458.172 207.227 457.74C209.003 457.308 211.043 457.008 213.347 456.84C213.347 455.568 213.143 454.668 212.735 454.14C212.327 453.612 211.535 453.348 210.359 453.348C209.615 453.348 208.955 453.528 208.379 453.888C207.827 454.224 207.455 454.752 207.263 455.472L202.655 453.816C203.255 452.616 204.251 451.62 205.643 450.828C207.059 450.036 208.787 449.64 210.827 449.64C213.371 449.64 215.327 450.204 216.695 451.332C218.063 452.46 218.747 454.38 218.747 457.092V461.016C218.747 461.784 218.771 462.612 218.819 463.5C218.867 464.388 218.939 465.228 219.035 466.02C219.131 466.812 219.239 467.472 219.359 468H214.283L213.635 465.84C212.963 466.776 212.111 467.448 211.079 467.856C210.071 468.24 208.931 468.432 207.659 468.432ZM209.675 464.688C210.755 464.688 211.655 464.4 212.375 463.824C213.095 463.248 213.455 462.144 213.455 460.512V460.08C211.559 460.248 210.035 460.512 208.883 460.872C207.731 461.208 207.155 461.844 207.155 462.78C207.155 463.356 207.395 463.824 207.875 464.184C208.355 464.52 208.955 464.688 209.675 464.688ZM222.337 468V450.144H226.657L227.629 453.42C228.181 451.98 228.937 450.972 229.897 450.396C230.857 449.82 232.021 449.568 233.389 449.64V455.112C233.101 455.064 232.849 455.04 232.633 455.04C232.417 455.016 232.177 455.004 231.913 455.004C230.593 455.004 229.573 455.316 228.853 455.94C228.157 456.564 227.809 457.584 227.809 459V468H222.337ZM241.479 447.192C240.591 447.192 239.823 446.88 239.175 446.256C238.551 445.608 238.239 444.84 238.239 443.952C238.239 443.04 238.551 442.272 239.175 441.648C239.823 441.024 240.591 440.712 241.479 440.712C242.391 440.712 243.159 441.024 243.783 441.648C244.407 442.272 244.719 443.04 244.719 443.952C244.719 444.84 244.407 445.608 243.783 446.256C243.159 446.88 242.391 447.192 241.479 447.192ZM238.707 468V454.32H235.323V450.144H244.215V468H238.707ZM255.318 468.432C253.23 468.432 251.418 468.048 249.882 467.28C248.37 466.512 247.266 465.384 246.57 463.896L251.214 462.204C251.478 462.948 251.982 463.512 252.726 463.896C253.494 464.256 254.394 464.436 255.426 464.436C256.314 464.436 257.094 464.304 257.766 464.04C258.462 463.752 258.81 463.332 258.81 462.78C258.81 462.396 258.606 462.072 258.198 461.808C257.79 461.544 257.07 461.328 256.038 461.16L252.834 460.62C251.106 460.332 249.702 459.744 248.622 458.856C247.542 457.968 247.002 456.78 247.002 455.292C247.002 454.044 247.374 453 248.118 452.16C248.886 451.32 249.894 450.696 251.142 450.288C252.39 449.856 253.746 449.64 255.21 449.64C256.914 449.64 258.486 449.952 259.926 450.576C261.39 451.176 262.458 452.184 263.13 453.6L258.522 455.292C258.354 454.644 257.958 454.212 257.334 453.996C256.71 453.756 255.99 453.636 255.174 453.636C253.206 453.636 252.222 454.116 252.222 455.076C252.222 455.436 252.39 455.736 252.726 455.976C253.062 456.192 253.626 456.372 254.418 456.516L257.73 457.128C259.89 457.512 261.486 458.076 262.518 458.82C263.55 459.564 264.066 460.68 264.066 462.168C264.066 463.56 263.67 464.724 262.878 465.66C262.086 466.596 261.03 467.292 259.71 467.748C258.39 468.204 256.926 468.432 255.318 468.432ZM275.377 468.432C273.721 468.432 272.173 468.096 270.733 467.424C269.293 466.752 268.129 465.72 267.241 464.328C266.353 462.912 265.909 461.136 265.909 459C265.909 456.84 266.353 455.076 267.241 453.708C268.129 452.316 269.293 451.296 270.733 450.648C272.173 449.976 273.721 449.64 275.377 449.64C277.009 449.64 278.545 449.976 279.985 450.648C281.425 451.296 282.589 452.316 283.477 453.708C284.365 455.076 284.809 456.84 284.809 459C284.809 461.136 284.365 462.912 283.477 464.328C282.589 465.72 281.425 466.752 279.985 467.424C278.545 468.096 277.009 468.432 275.377 468.432ZM275.377 464.184C276.481 464.184 277.393 463.788 278.113 462.996C278.857 462.204 279.229 460.872 279.229 459C279.229 457.104 278.845 455.784 278.077 455.04C277.333 454.272 276.433 453.888 275.377 453.888C274.297 453.888 273.373 454.272 272.605 455.04C271.861 455.784 271.489 457.104 271.489 459C271.489 460.872 271.861 462.204 272.605 462.996C273.349 463.788 274.273 464.184 275.377 464.184ZM287.482 468V450.144H292.27L292.954 452.52C293.362 451.848 294.034 451.2 294.97 450.576C295.93 449.952 297.094 449.64 298.462 449.64C300.766 449.64 302.338 450.288 303.178 451.584C304.042 452.856 304.474 454.704 304.474 457.128V468H299.002V458.496C299.002 457.656 298.954 456.888 298.858 456.192C298.762 455.496 298.522 454.944 298.138 454.536C297.778 454.104 297.154 453.888 296.266 453.888C295.114 453.888 294.274 454.308 293.746 455.148C293.218 455.964 292.954 457.188 292.954 458.82V468H287.482ZM327.138 468C325.674 468 324.51 467.88 323.646 467.64C322.782 467.376 322.158 466.884 321.774 466.164C321.414 465.42 321.234 464.352 321.234 462.96V454.32H318.282V450.144H321.234V445.68H326.706V450.144H330.594V454.32H326.706V461.52C326.706 462.36 326.862 462.912 327.174 463.176C327.51 463.416 328.122 463.536 329.01 463.536H330.594V468H327.138ZM341.787 468.432C340.131 468.432 338.583 468.096 337.143 467.424C335.703 466.752 334.539 465.72 333.651 464.328C332.763 462.912 332.319 461.136 332.319 459C332.319 456.84 332.763 455.076 333.651 453.708C334.539 452.316 335.703 451.296 337.143 450.648C338.583 449.976 340.131 449.64 341.787 449.64C343.419 449.64 344.955 449.976 346.395 450.648C347.835 451.296 348.999 452.316 349.887 453.708C350.775 455.076 351.219 456.84 351.219 459C351.219 461.136 350.775 462.912 349.887 464.328C348.999 465.72 347.835 466.752 346.395 467.424C344.955 468.096 343.419 468.432 341.787 468.432ZM341.787 464.184C342.891 464.184 343.803 463.788 344.523 462.996C345.267 462.204 345.639 460.872 345.639 459C345.639 457.104 345.255 455.784 344.487 455.04C343.743 454.272 342.843 453.888 341.787 453.888C340.707 453.888 339.783 454.272 339.015 455.04C338.271 455.784 337.899 457.104 337.899 459C337.899 460.872 338.271 462.204 339.015 462.996C339.759 463.788 340.683 464.184 341.787 464.184ZM365.207 468V443.952H382.415V448.956H370.895V453.132H382.415V458.136H370.895V468H365.207ZM390.225 447.192C389.337 447.192 388.569 446.88 387.921 446.256C387.297 445.608 386.985 444.84 386.985 443.952C386.985 443.04 387.297 442.272 387.921 441.648C388.569 441.024 389.337 440.712 390.225 440.712C391.137 440.712 391.905 441.024 392.529 441.648C393.153 442.272 393.465 443.04 393.465 443.952C393.465 444.84 393.153 445.608 392.529 446.256C391.905 446.88 391.137 447.192 390.225 447.192ZM387.453 468V454.32H384.069V450.144H392.961V468H387.453ZM396.361 468V450.144H401.149L401.833 452.52C402.241 451.848 402.913 451.2 403.849 450.576C404.809 449.952 405.973 449.64 407.341 449.64C409.645 449.64 411.217 450.288 412.057 451.584C412.921 452.856 413.353 454.704 413.353 457.128V468H407.881V458.496C407.881 457.656 407.833 456.888 407.737 456.192C407.641 455.496 407.401 454.944 407.017 454.536C406.657 454.104 406.033 453.888 405.145 453.888C403.993 453.888 403.153 454.308 402.625 455.148C402.097 455.964 401.833 457.188 401.833 458.82V468H396.361ZM422.866 468C421.402 468 420.238 467.88 419.374 467.64C418.51 467.376 417.886 466.884 417.502 466.164C417.142 465.42 416.962 464.352 416.962 462.96V443.952H422.434V461.52C422.434 462.36 422.602 462.912 422.938 463.176C423.274 463.416 423.898 463.536 424.81 463.536H426.358V468H422.866ZM434.311 468.432C433.183 468.432 432.151 468.216 431.215 467.784C430.279 467.352 429.535 466.752 428.983 465.984C428.431 465.192 428.155 464.256 428.155 463.176C428.155 461.712 428.659 460.548 429.667 459.684C430.699 458.82 432.103 458.172 433.879 457.74C435.655 457.308 437.695 457.008 439.999 456.84C439.999 455.568 439.795 454.668 439.387 454.14C438.979 453.612 438.187 453.348 437.011 453.348C436.267 453.348 435.607 453.528 435.031 453.888C434.479 454.224 434.107 454.752 433.915 455.472L429.307 453.816C429.907 452.616 430.903 451.62 432.295 450.828C433.711 450.036 435.439 449.64 437.479 449.64C440.023 449.64 441.979 450.204 443.347 451.332C444.715 452.46 445.399 454.38 445.399 457.092V461.016C445.399 461.784 445.423 462.612 445.471 463.5C445.519 464.388 445.591 465.228 445.687 466.02C445.783 466.812 445.891 467.472 446.011 468H440.935L440.287 465.84C439.615 466.776 438.763 467.448 437.731 467.856C436.723 468.24 435.583 468.432 434.311 468.432ZM436.327 464.688C437.407 464.688 438.307 464.4 439.027 463.824C439.747 463.248 440.107 462.144 440.107 460.512V460.08C438.211 460.248 436.687 460.512 435.535 460.872C434.383 461.208 433.807 461.844 433.807 462.78C433.807 463.356 434.047 463.824 434.527 464.184C435.007 464.52 435.607 464.688 436.327 464.688ZM448.989 468V450.144H453.777L454.461 452.52C454.869 451.848 455.541 451.2 456.477 450.576C457.437 449.952 458.601 449.64 459.969 449.64C462.273 449.64 463.845 450.288 464.685 451.584C465.549 452.856 465.981 454.704 465.981 457.128V468H460.509V458.496C460.509 457.656 460.461 456.888 460.365 456.192C460.269 455.496 460.029 454.944 459.645 454.536C459.285 454.104 458.661 453.888 457.773 453.888C456.621 453.888 455.781 454.308 455.253 455.148C454.725 455.964 454.461 457.188 454.461 458.82V468H448.989ZM476.258 468.432C474.722 468.432 473.354 468.048 472.154 467.28C470.978 466.512 470.054 465.42 469.382 464.004C468.71 462.564 468.374 460.872 468.374 458.928C468.374 456.984 468.71 455.328 469.382 453.96C470.054 452.568 470.978 451.5 472.154 450.756C473.354 450.012 474.722 449.64 476.258 449.64C477.242 449.64 478.25 449.892 479.282 450.396C480.314 450.876 481.118 451.608 481.694 452.592V443.952H487.166V461.016C487.166 461.904 487.202 462.96 487.274 464.184C487.37 465.408 487.538 466.68 487.778 468H482.558L481.838 465.588C481.094 466.62 480.218 467.352 479.21 467.784C478.226 468.216 477.242 468.432 476.258 468.432ZM478.022 464.184C479.078 464.184 479.99 463.788 480.758 462.996C481.55 462.204 481.946 460.884 481.946 459.036C481.946 457.212 481.55 455.904 480.758 455.112C479.99 454.296 479.078 453.888 478.022 453.888C476.942 453.888 476.006 454.32 475.214 455.184C474.446 456.048 474.062 457.296 474.062 458.928C474.062 460.584 474.446 461.88 475.214 462.816C476.006 463.728 476.942 464.184 478.022 464.184Z" fill="#1B2250"/>
<rect x="78.5" y="578.5" width="1021" height="173" rx="7.5" fill="white" stroke="#6C9AEF" stroke-width="5" stroke-dasharray="10 10"/>
<path d="M177.72 673V668.536H181.104V653.416H177.72V648.952H190.104V653.416H186.792V668.536H190.104V673H177.72ZM193.956 673V655.144H198.744L199.428 657.52C199.836 656.848 200.508 656.2 201.444 655.576C202.404 654.952 203.568 654.64 204.936 654.64C207.24 654.64 208.812 655.288 209.652 656.584C210.516 657.856 210.948 659.704 210.948 662.128V673H205.476V663.496C205.476 662.656 205.428 661.888 205.332 661.192C205.236 660.496 204.996 659.944 204.612 659.536C204.252 659.104 203.628 658.888 202.74 658.888C201.588 658.888 200.748 659.308 200.22 660.148C199.692 660.964 199.428 662.188 199.428 663.82V673H193.956ZM222.082 673C220.618 673 219.454 672.88 218.59 672.64C217.726 672.376 217.102 671.884 216.718 671.164C216.358 670.42 216.178 669.352 216.178 667.96V659.32H213.226V655.144H216.178V650.68H221.65V655.144H225.538V659.32H221.65V666.52C221.65 667.36 221.806 667.912 222.118 668.176C222.454 668.416 223.066 668.536 223.954 668.536H225.538V673H222.082ZM237.054 673.432C235.134 673.432 233.43 673.06 231.942 672.316C230.478 671.548 229.326 670.456 228.486 669.04C227.67 667.624 227.262 665.932 227.262 663.964C227.262 662.068 227.694 660.424 228.558 659.032C229.446 657.64 230.61 656.56 232.05 655.792C233.514 655.024 235.11 654.64 236.838 654.64C238.806 654.64 240.486 655.108 241.878 656.044C243.294 656.956 244.362 658.228 245.082 659.86C245.802 661.468 246.102 663.328 245.982 665.44H232.77C232.866 666.688 233.322 667.624 234.138 668.248C234.978 668.872 235.902 669.184 236.91 669.184C237.75 669.184 238.47 669.064 239.07 668.824C239.694 668.56 240.174 668.236 240.51 667.852L244.866 669.436C243.93 670.804 242.754 671.812 241.338 672.46C239.946 673.108 238.518 673.432 237.054 673.432ZM232.77 662.2H240.906C240.882 661.048 240.486 660.184 239.718 659.608C238.95 659.008 238.038 658.708 236.982 658.708C235.95 658.708 235.026 658.984 234.21 659.536C233.418 660.088 232.938 660.976 232.77 662.2ZM248.589 673V655.144H252.909L253.881 658.42C254.433 656.98 255.189 655.972 256.149 655.396C257.109 654.82 258.273 654.568 259.641 654.64V660.112C259.353 660.064 259.101 660.04 258.885 660.04C258.669 660.016 258.429 660.004 258.165 660.004C256.845 660.004 255.825 660.316 255.105 660.94C254.409 661.564 254.061 662.584 254.061 664V673H248.589ZM266.747 673.432C265.619 673.432 264.587 673.216 263.651 672.784C262.715 672.352 261.971 671.752 261.419 670.984C260.867 670.192 260.591 669.256 260.591 668.176C260.591 666.712 261.095 665.548 262.103 664.684C263.135 663.82 264.539 663.172 266.315 662.74C268.091 662.308 270.131 662.008 272.435 661.84C272.435 660.568 272.231 659.668 271.823 659.14C271.415 658.612 270.623 658.348 269.447 658.348C268.703 658.348 268.043 658.528 267.467 658.888C266.915 659.224 266.543 659.752 266.351 660.472L261.743 658.816C262.343 657.616 263.339 656.62 264.731 655.828C266.147 655.036 267.875 654.64 269.915 654.64C272.459 654.64 274.415 655.204 275.783 656.332C277.151 657.46 277.835 659.38 277.835 662.092V666.016C277.835 666.784 277.859 667.612 277.907 668.5C277.955 669.388 278.027 670.228 278.123 671.02C278.219 671.812 278.327 672.472 278.447 673H273.371L272.723 670.84C272.051 671.776 271.199 672.448 270.167 672.856C269.159 673.24 268.019 673.432 266.747 673.432ZM268.763 669.688C269.843 669.688 270.743 669.4 271.463 668.824C272.183 668.248 272.543 667.144 272.543 665.512V665.08C270.647 665.248 269.123 665.512 267.971 665.872C266.819 666.208 266.243 666.844 266.243 667.78C266.243 668.356 266.483 668.824 266.963 669.184C267.443 669.52 268.043 669.688 268.763 669.688ZM289.633 673.432C287.665 673.432 285.997 673.036 284.629 672.244C283.285 671.452 282.253 670.348 281.533 668.932C280.837 667.492 280.489 665.836 280.489 663.964C280.489 662.092 280.873 660.46 281.641 659.068C282.409 657.652 283.477 656.56 284.845 655.792C286.237 655.024 287.833 654.64 289.633 654.64C290.665 654.64 291.685 654.784 292.693 655.072C293.725 655.36 294.673 655.852 295.537 656.548C296.425 657.22 297.145 658.144 297.697 659.32L293.125 660.976C292.837 660.208 292.405 659.668 291.829 659.356C291.277 659.044 290.653 658.888 289.957 658.888C289.309 658.888 288.685 659.056 288.085 659.392C287.485 659.704 286.993 660.232 286.609 660.976C286.249 661.72 286.069 662.728 286.069 664C286.069 665.296 286.261 666.328 286.645 667.096C287.029 667.84 287.509 668.38 288.085 668.716C288.685 669.028 289.309 669.184 289.957 669.184C290.725 669.184 291.373 669.04 291.901 668.752C292.429 668.44 292.849 668.02 293.161 667.492L297.625 669.112C297.025 670.192 296.281 671.056 295.393 671.704C294.505 672.328 293.557 672.772 292.549 673.036C291.565 673.3 290.593 673.432 289.633 673.432ZM307.652 673C306.188 673 305.024 672.88 304.16 672.64C303.296 672.376 302.672 671.884 302.288 671.164C301.928 670.42 301.748 669.352 301.748 667.96V659.32H298.796V655.144H301.748V650.68H307.22V655.144H311.108V659.32H307.22V666.52C307.22 667.36 307.376 667.912 307.688 668.176C308.024 668.416 308.636 668.536 309.524 668.536H311.108V673H307.652ZM318.989 652.192C318.101 652.192 317.333 651.88 316.685 651.256C316.061 650.608 315.749 649.84 315.749 648.952C315.749 648.04 316.061 647.272 316.685 646.648C317.333 646.024 318.101 645.712 318.989 645.712C319.901 645.712 320.669 646.024 321.293 646.648C321.917 647.272 322.229 648.04 322.229 648.952C322.229 649.84 321.917 650.608 321.293 651.256C320.669 651.88 319.901 652.192 318.989 652.192ZM316.217 673V659.32H312.833V655.144H321.725V673H316.217ZM333.656 673.432C332 673.432 330.452 673.096 329.012 672.424C327.572 671.752 326.408 670.72 325.52 669.328C324.632 667.912 324.188 666.136 324.188 664C324.188 661.84 324.632 660.076 325.52 658.708C326.408 657.316 327.572 656.296 329.012 655.648C330.452 654.976 332 654.64 333.656 654.64C335.288 654.64 336.824 654.976 338.264 655.648C339.704 656.296 340.868 657.316 341.756 658.708C342.644 660.076 343.088 661.84 343.088 664C343.088 666.136 342.644 667.912 341.756 669.328C340.868 670.72 339.704 671.752 338.264 672.424C336.824 673.096 335.288 673.432 333.656 673.432ZM333.656 669.184C334.76 669.184 335.672 668.788 336.392 667.996C337.136 667.204 337.508 665.872 337.508 664C337.508 662.104 337.124 660.784 336.356 660.04C335.612 659.272 334.712 658.888 333.656 658.888C332.576 658.888 331.652 659.272 330.884 660.04C330.14 660.784 329.768 662.104 329.768 664C329.768 665.872 330.14 667.204 330.884 667.996C331.628 668.788 332.552 669.184 333.656 669.184ZM345.761 673V655.144H350.549L351.233 657.52C351.641 656.848 352.313 656.2 353.249 655.576C354.209 654.952 355.373 654.64 356.741 654.64C359.045 654.64 360.617 655.288 361.457 656.584C362.321 657.856 362.753 659.704 362.753 662.128V673H357.281V663.496C357.281 662.656 357.233 661.888 357.137 661.192C357.041 660.496 356.801 659.944 356.417 659.536C356.057 659.104 355.433 658.888 354.545 658.888C353.393 658.888 352.553 659.308 352.025 660.148C351.497 660.964 351.233 662.188 351.233 663.82V673H345.761ZM377.678 673V648.952H388.19C389.942 648.952 391.502 649.132 392.87 649.492C394.238 649.828 395.318 650.452 396.11 651.364C396.926 652.252 397.334 653.536 397.334 655.216C397.334 656.32 397.082 657.292 396.578 658.132C396.098 658.972 395.402 659.668 394.49 660.22C395.618 660.604 396.53 661.228 397.226 662.092C397.946 662.956 398.306 664.12 398.306 665.584C398.306 667.384 397.898 668.824 397.082 669.904C396.29 670.984 395.162 671.776 393.698 672.28C392.234 672.76 390.53 673 388.586 673H377.678ZM383.366 658.456H388.37C389.33 658.456 390.074 658.24 390.602 657.808C391.154 657.352 391.43 656.752 391.43 656.008C391.43 655.24 391.154 654.652 390.602 654.244C390.074 653.812 389.33 653.596 388.37 653.596H383.366V658.456ZM383.366 668.284H388.622C389.846 668.284 390.758 668.044 391.358 667.564C391.982 667.06 392.294 666.388 392.294 665.548C392.294 664.708 391.982 664.048 391.358 663.568C390.758 663.088 389.846 662.848 388.622 662.848H383.366V668.284ZM409.742 673.432C407.822 673.432 406.118 673.06 404.63 672.316C403.166 671.548 402.014 670.456 401.174 669.04C400.358 667.624 399.95 665.932 399.95 663.964C399.95 662.068 400.382 660.424 401.246 659.032C402.134 657.64 403.298 656.56 404.738 655.792C406.202 655.024 407.798 654.64 409.526 654.64C411.494 654.64 413.174 655.108 414.566 656.044C415.982 656.956 417.05 658.228 417.77 659.86C418.49 661.468 418.79 663.328 418.67 665.44H405.458C405.554 666.688 406.01 667.624 406.826 668.248C407.666 668.872 408.59 669.184 409.598 669.184C410.438 669.184 411.158 669.064 411.758 668.824C412.382 668.56 412.862 668.236 413.198 667.852L417.554 669.436C416.618 670.804 415.442 671.812 414.026 672.46C412.634 673.108 411.206 673.432 409.742 673.432ZM405.458 662.2H413.594C413.57 661.048 413.174 660.184 412.406 659.608C411.638 659.008 410.726 658.708 409.67 658.708C408.638 658.708 407.714 658.984 406.898 659.536C406.106 660.088 405.626 660.976 405.458 662.2ZM428.801 673C427.337 673 426.173 672.88 425.309 672.64C424.445 672.376 423.821 671.884 423.437 671.164C423.077 670.42 422.897 669.352 422.897 667.96V659.32H419.945V655.144H422.897V650.68H428.369V655.144H432.257V659.32H428.369V666.52C428.369 667.36 428.525 667.912 428.837 668.176C429.173 668.416 429.785 668.536 430.673 668.536H432.257V673H428.801ZM438.003 673L433.539 655.144H438.939L441.639 667.24L443.943 655.144H449.127L451.431 667.24L454.131 655.144H459.567L455.103 673H449.127L446.535 660.184L443.979 673H438.003ZM470.211 673.432C468.291 673.432 466.587 673.06 465.099 672.316C463.635 671.548 462.483 670.456 461.643 669.04C460.827 667.624 460.419 665.932 460.419 663.964C460.419 662.068 460.851 660.424 461.715 659.032C462.603 657.64 463.767 656.56 465.207 655.792C466.671 655.024 468.267 654.64 469.995 654.64C471.963 654.64 473.643 655.108 475.035 656.044C476.451 656.956 477.519 658.228 478.239 659.86C478.959 661.468 479.259 663.328 479.139 665.44H465.927C466.023 666.688 466.479 667.624 467.295 668.248C468.135 668.872 469.059 669.184 470.067 669.184C470.907 669.184 471.627 669.064 472.227 668.824C472.851 668.56 473.331 668.236 473.667 667.852L478.023 669.436C477.087 670.804 475.911 671.812 474.495 672.46C473.103 673.108 471.675 673.432 470.211 673.432ZM465.927 662.2H474.063C474.039 661.048 473.643 660.184 472.875 659.608C472.107 659.008 471.195 658.708 470.139 658.708C469.107 658.708 468.183 658.984 467.367 659.536C466.575 660.088 466.095 660.976 465.927 662.2ZM490.601 673.432C488.681 673.432 486.977 673.06 485.489 672.316C484.025 671.548 482.873 670.456 482.033 669.04C481.217 667.624 480.809 665.932 480.809 663.964C480.809 662.068 481.241 660.424 482.105 659.032C482.993 657.64 484.157 656.56 485.597 655.792C487.061 655.024 488.657 654.64 490.385 654.64C492.353 654.64 494.033 655.108 495.425 656.044C496.841 656.956 497.909 658.228 498.629 659.86C499.349 661.468 499.649 663.328 499.529 665.44H486.317C486.413 666.688 486.869 667.624 487.685 668.248C488.525 668.872 489.449 669.184 490.457 669.184C491.297 669.184 492.017 669.064 492.617 668.824C493.241 668.56 493.721 668.236 494.057 667.852L498.413 669.436C497.477 670.804 496.301 671.812 494.885 672.46C493.493 673.108 492.065 673.432 490.601 673.432ZM486.317 662.2H494.453C494.429 661.048 494.033 660.184 493.265 659.608C492.497 659.008 491.585 658.708 490.529 658.708C489.497 658.708 488.573 658.984 487.757 659.536C486.965 660.088 486.485 660.976 486.317 662.2ZM502.136 673V655.144H506.924L507.608 657.52C508.016 656.848 508.688 656.2 509.624 655.576C510.584 654.952 511.748 654.64 513.116 654.64C515.42 654.64 516.992 655.288 517.832 656.584C518.696 657.856 519.128 659.704 519.128 662.128V673H513.656V663.496C513.656 662.656 513.608 661.888 513.512 661.192C513.416 660.496 513.176 659.944 512.792 659.536C512.432 659.104 511.808 658.888 510.92 658.888C509.768 658.888 508.928 659.308 508.4 660.148C507.872 660.964 507.608 662.188 507.608 663.82V673H502.136ZM543.773 673.432C541.157 673.432 538.949 672.904 537.149 671.848C535.373 670.768 534.113 669.268 533.369 667.348L538.553 665.476C538.889 666.628 539.513 667.48 540.425 668.032C541.361 668.584 542.489 668.86 543.809 668.86C544.505 668.86 545.177 668.788 545.825 668.644C546.473 668.476 547.013 668.212 547.445 667.852C547.877 667.468 548.093 666.964 548.093 666.34C548.093 665.5 547.685 664.852 546.869 664.396C546.053 663.916 544.997 663.556 543.701 663.316L540.785 662.74C539.489 662.476 538.277 662.08 537.149 661.552C536.045 661 535.157 660.28 534.485 659.392C533.813 658.48 533.477 657.34 533.477 655.972C533.477 654.676 533.777 653.56 534.377 652.624C534.977 651.688 535.769 650.92 536.753 650.32C537.761 649.72 538.865 649.276 540.065 648.988C541.265 648.676 542.465 648.52 543.665 648.52C544.961 648.52 546.209 648.7 547.409 649.06C548.633 649.42 549.725 649.984 550.685 650.752C551.645 651.496 552.377 652.492 552.881 653.74L547.733 655.612C547.421 654.796 546.857 654.172 546.041 653.74C545.249 653.308 544.289 653.092 543.161 653.092C542.057 653.092 541.133 653.296 540.389 653.704C539.669 654.088 539.309 654.652 539.309 655.396C539.309 655.996 539.561 656.512 540.065 656.944C540.569 657.376 541.229 657.676 542.045 657.844L545.285 658.492C546.269 658.684 547.265 658.936 548.273 659.248C549.281 659.536 550.205 659.932 551.045 660.436C551.909 660.916 552.605 661.564 553.133 662.38C553.661 663.196 553.925 664.228 553.925 665.476C553.925 666.748 553.625 667.888 553.025 668.896C552.449 669.88 551.669 670.708 550.685 671.38C549.725 672.052 548.645 672.568 547.445 672.928C546.245 673.264 545.021 673.432 543.773 673.432ZM564.082 673C562.618 673 561.454 672.88 560.59 672.64C559.726 672.376 559.102 671.884 558.718 671.164C558.358 670.42 558.178 669.352 558.178 667.96V659.32H555.226V655.144H558.178V650.68H563.65V655.144H567.538V659.32H563.65V666.52C563.65 667.36 563.806 667.912 564.118 668.176C564.454 668.416 565.066 668.536 565.954 668.536H567.538V673H564.082ZM570.198 673V655.144H574.518L575.49 658.42C576.042 656.98 576.798 655.972 577.758 655.396C578.718 654.82 579.882 654.568 581.25 654.64V660.112C580.962 660.064 580.71 660.04 580.494 660.04C580.278 660.016 580.038 660.004 579.774 660.004C578.454 660.004 577.434 660.316 576.714 660.94C576.018 661.564 575.67 662.584 575.67 664V673H570.198ZM589.785 673.432C588.201 673.432 586.953 673.144 586.041 672.568C585.153 671.968 584.517 671.104 584.133 669.976C583.773 668.848 583.593 667.48 583.593 665.872V655.144H589.065V665.116C589.065 666.748 589.305 667.84 589.785 668.392C590.289 668.92 590.985 669.184 591.873 669.184C592.953 669.184 593.733 668.824 594.213 668.104C594.717 667.384 594.969 666.196 594.969 664.54V655.144H600.477V673H595.725L594.969 670.48C594.441 671.368 593.781 672.088 592.989 672.64C592.221 673.168 591.153 673.432 589.785 673.432ZM612.332 673.432C610.364 673.432 608.696 673.036 607.328 672.244C605.984 671.452 604.952 670.348 604.232 668.932C603.536 667.492 603.188 665.836 603.188 663.964C603.188 662.092 603.572 660.46 604.34 659.068C605.108 657.652 606.176 656.56 607.544 655.792C608.936 655.024 610.532 654.64 612.332 654.64C613.364 654.64 614.384 654.784 615.392 655.072C616.424 655.36 617.372 655.852 618.236 656.548C619.124 657.22 619.844 658.144 620.396 659.32L615.824 660.976C615.536 660.208 615.104 659.668 614.528 659.356C613.976 659.044 613.352 658.888 612.656 658.888C612.008 658.888 611.384 659.056 610.784 659.392C610.184 659.704 609.692 660.232 609.308 660.976C608.948 661.72 608.768 662.728 608.768 664C608.768 665.296 608.96 666.328 609.344 667.096C609.728 667.84 610.208 668.38 610.784 668.716C611.384 669.028 612.008 669.184 612.656 669.184C613.424 669.184 614.072 669.04 614.6 668.752C615.128 668.44 615.548 668.02 615.86 667.492L620.324 669.112C619.724 670.192 618.98 671.056 618.092 671.704C617.204 672.328 616.256 672.772 615.248 673.036C614.264 673.3 613.292 673.432 612.332 673.432ZM630.351 673C628.887 673 627.723 672.88 626.859 672.64C625.995 672.376 625.371 671.884 624.987 671.164C624.627 670.42 624.447 669.352 624.447 667.96V659.32H621.495V655.144H624.447V650.68H629.919V655.144H633.807V659.32H629.919V666.52C629.919 667.36 630.075 667.912 630.387 668.176C630.723 668.416 631.335 668.536 632.223 668.536H633.807V673H630.351ZM642.66 673.432C641.076 673.432 639.828 673.144 638.916 672.568C638.028 671.968 637.392 671.104 637.008 669.976C636.648 668.848 636.468 667.48 636.468 665.872V655.144H641.94V665.116C641.94 666.748 642.18 667.84 642.66 668.392C643.164 668.92 643.86 669.184 644.748 669.184C645.828 669.184 646.608 668.824 647.088 668.104C647.592 667.384 647.844 666.196 647.844 664.54V655.144H653.352V673H648.6L647.844 670.48C647.316 671.368 646.656 672.088 645.864 672.64C645.096 673.168 644.028 673.432 642.66 673.432ZM656.999 673V655.144H661.319L662.291 658.42C662.843 656.98 663.599 655.972 664.559 655.396C665.519 654.82 666.683 654.568 668.051 654.64V660.112C667.763 660.064 667.511 660.04 667.295 660.04C667.079 660.016 666.839 660.004 666.575 660.004C665.255 660.004 664.235 660.316 663.515 660.94C662.819 661.564 662.471 662.584 662.471 664V673H656.999ZM679.25 673.432C677.33 673.432 675.626 673.06 674.138 672.316C672.674 671.548 671.522 670.456 670.682 669.04C669.866 667.624 669.458 665.932 669.458 663.964C669.458 662.068 669.89 660.424 670.754 659.032C671.642 657.64 672.806 656.56 674.246 655.792C675.71 655.024 677.306 654.64 679.034 654.64C681.002 654.64 682.682 655.108 684.074 656.044C685.49 656.956 686.558 658.228 687.278 659.86C687.998 661.468 688.298 663.328 688.178 665.44H674.966C675.062 666.688 675.518 667.624 676.334 668.248C677.174 668.872 678.098 669.184 679.106 669.184C679.946 669.184 680.666 669.064 681.266 668.824C681.89 668.56 682.37 668.236 682.706 667.852L687.062 669.436C686.126 670.804 684.95 671.812 683.534 672.46C682.142 673.108 680.714 673.432 679.25 673.432ZM674.966 662.2H683.102C683.078 661.048 682.682 660.184 681.914 659.608C681.146 659.008 680.234 658.708 679.178 658.708C678.146 658.708 677.222 658.984 676.406 659.536C675.614 660.088 675.134 660.976 674.966 662.2ZM707.536 673.432C706.408 673.432 705.376 673.216 704.44 672.784C703.504 672.352 702.76 671.752 702.208 670.984C701.656 670.192 701.38 669.256 701.38 668.176C701.38 666.712 701.884 665.548 702.892 664.684C703.924 663.82 705.328 663.172 707.104 662.74C708.88 662.308 710.92 662.008 713.224 661.84C713.224 660.568 713.02 659.668 712.612 659.14C712.204 658.612 711.412 658.348 710.236 658.348C709.492 658.348 708.832 658.528 708.256 658.888C707.704 659.224 707.332 659.752 707.14 660.472L702.532 658.816C703.132 657.616 704.128 656.62 705.52 655.828C706.936 655.036 708.664 654.64 710.704 654.64C713.248 654.64 715.204 655.204 716.572 656.332C717.94 657.46 718.624 659.38 718.624 662.092V666.016C718.624 666.784 718.648 667.612 718.696 668.5C718.744 669.388 718.816 670.228 718.912 671.02C719.008 671.812 719.116 672.472 719.236 673H714.16L713.512 670.84C712.84 671.776 711.988 672.448 710.956 672.856C709.948 673.24 708.808 673.432 707.536 673.432ZM709.552 669.688C710.632 669.688 711.532 669.4 712.252 668.824C712.972 668.248 713.332 667.144 713.332 665.512V665.08C711.436 665.248 709.912 665.512 708.76 665.872C707.608 666.208 707.032 666.844 707.032 667.78C707.032 668.356 707.272 668.824 707.752 669.184C708.232 669.52 708.832 669.688 709.552 669.688ZM722.214 673V655.144H727.002L727.686 657.52C728.094 656.848 728.766 656.2 729.702 655.576C730.662 654.952 731.826 654.64 733.194 654.64C735.498 654.64 737.07 655.288 737.91 656.584C738.774 657.856 739.206 659.704 739.206 662.128V673H733.734V663.496C733.734 662.656 733.686 661.888 733.59 661.192C733.494 660.496 733.254 659.944 732.87 659.536C732.51 659.104 731.886 658.888 730.998 658.888C729.846 658.888 729.006 659.308 728.478 660.148C727.95 660.964 727.686 662.188 727.686 663.82V673H722.214ZM749.482 673.432C747.946 673.432 746.578 673.048 745.378 672.28C744.202 671.512 743.278 670.42 742.606 669.004C741.934 667.564 741.598 665.872 741.598 663.928C741.598 661.984 741.934 660.328 742.606 658.96C743.278 657.568 744.202 656.5 745.378 655.756C746.578 655.012 747.946 654.64 749.482 654.64C750.466 654.64 751.474 654.892 752.506 655.396C753.538 655.876 754.342 656.608 754.918 657.592V648.952H760.39V666.016C760.39 666.904 760.426 667.96 760.498 669.184C760.594 670.408 760.762 671.68 761.002 673H755.782L755.062 670.588C754.318 671.62 753.442 672.352 752.434 672.784C751.45 673.216 750.466 673.432 749.482 673.432ZM751.246 669.184C752.302 669.184 753.214 668.788 753.982 667.996C754.774 667.204 755.17 665.884 755.17 664.036C755.17 662.212 754.774 660.904 753.982 660.112C753.214 659.296 752.302 658.888 751.246 658.888C750.166 658.888 749.23 659.32 748.438 660.184C747.67 661.048 747.286 662.296 747.286 663.928C747.286 665.584 747.67 666.88 748.438 667.816C749.23 668.728 750.166 669.184 751.246 669.184ZM775.295 673V648.952H783.215C785.183 648.952 787.007 649.156 788.687 649.564C790.391 649.948 791.867 650.608 793.115 651.544C794.387 652.456 795.371 653.692 796.067 655.252C796.787 656.788 797.147 658.696 797.147 660.976C797.147 663.28 796.787 665.2 796.067 666.736C795.371 668.272 794.387 669.508 793.115 670.444C791.867 671.356 790.391 672.016 788.687 672.424C787.007 672.808 785.183 673 783.215 673H775.295ZM780.983 668.212H783.323C784.355 668.212 785.339 668.128 786.275 667.96C787.235 667.792 788.087 667.468 788.831 666.988C789.599 666.484 790.199 665.752 790.631 664.792C791.063 663.832 791.279 662.56 791.279 660.976C791.279 659.392 791.063 658.12 790.631 657.16C790.199 656.176 789.599 655.444 788.831 654.964C788.087 654.46 787.235 654.124 786.275 653.956C785.339 653.764 784.355 653.668 783.323 653.668H780.983V668.212ZM805.411 652.192C804.523 652.192 803.755 651.88 803.107 651.256C802.483 650.608 802.171 649.84 802.171 648.952C802.171 648.04 802.483 647.272 803.107 646.648C803.755 646.024 804.523 645.712 805.411 645.712C806.323 645.712 807.091 646.024 807.715 646.648C808.339 647.272 808.651 648.04 808.651 648.952C808.651 649.84 808.339 650.608 807.715 651.256C807.091 651.88 806.323 652.192 805.411 652.192ZM802.639 673V659.32H799.255V655.144H808.147V673H802.639ZM811.546 673V655.144H815.866L816.838 658.42C817.39 656.98 818.146 655.972 819.106 655.396C820.066 654.82 821.23 654.568 822.598 654.64V660.112C822.31 660.064 822.058 660.04 821.842 660.04C821.626 660.016 821.386 660.004 821.122 660.004C819.802 660.004 818.782 660.316 818.062 660.94C817.366 661.564 817.018 662.584 817.018 664V673H811.546ZM833.797 673.432C831.877 673.432 830.173 673.06 828.685 672.316C827.221 671.548 826.069 670.456 825.229 669.04C824.413 667.624 824.005 665.932 824.005 663.964C824.005 662.068 824.437 660.424 825.301 659.032C826.189 657.64 827.353 656.56 828.793 655.792C830.257 655.024 831.853 654.64 833.581 654.64C835.549 654.64 837.229 655.108 838.621 656.044C840.037 656.956 841.105 658.228 841.825 659.86C842.545 661.468 842.845 663.328 842.725 665.44H829.513C829.609 666.688 830.065 667.624 830.881 668.248C831.721 668.872 832.645 669.184 833.653 669.184C834.493 669.184 835.213 669.064 835.813 668.824C836.437 668.56 836.917 668.236 837.253 667.852L841.609 669.436C840.673 670.804 839.497 671.812 838.081 672.46C836.689 673.108 835.261 673.432 833.797 673.432ZM829.513 662.2H837.649C837.625 661.048 837.229 660.184 836.461 659.608C835.693 659.008 834.781 658.708 833.725 658.708C832.693 658.708 831.769 658.984 830.953 659.536C830.161 660.088 829.681 660.976 829.513 662.2ZM853.539 673.432C851.571 673.432 849.903 673.036 848.535 672.244C847.191 671.452 846.159 670.348 845.439 668.932C844.743 667.492 844.395 665.836 844.395 663.964C844.395 662.092 844.779 660.46 845.547 659.068C846.315 657.652 847.383 656.56 848.751 655.792C850.143 655.024 851.739 654.64 853.539 654.64C854.571 654.64 855.591 654.784 856.599 655.072C857.631 655.36 858.579 655.852 859.443 656.548C860.331 657.22 861.051 658.144 861.603 659.32L857.031 660.976C856.743 660.208 856.311 659.668 855.735 659.356C855.183 659.044 854.559 658.888 853.863 658.888C853.215 658.888 852.591 659.056 851.991 659.392C851.391 659.704 850.899 660.232 850.515 660.976C850.155 661.72 849.975 662.728 849.975 664C849.975 665.296 850.167 666.328 850.551 667.096C850.935 667.84 851.415 668.38 851.991 668.716C852.591 669.028 853.215 669.184 853.863 669.184C854.631 669.184 855.279 669.04 855.807 668.752C856.335 668.44 856.755 668.02 857.067 667.492L861.531 669.112C860.931 670.192 860.187 671.056 859.299 671.704C858.411 672.328 857.463 672.772 856.455 673.036C855.471 673.3 854.499 673.432 853.539 673.432ZM871.558 673C870.094 673 868.93 672.88 868.066 672.64C867.202 672.376 866.578 671.884 866.194 671.164C865.834 670.42 865.654 669.352 865.654 667.96V659.32H862.702V655.144H865.654V650.68H871.126V655.144H875.014V659.32H871.126V666.52C871.126 667.36 871.282 667.912 871.594 668.176C871.93 668.416 872.542 668.536 873.43 668.536H875.014V673H871.558ZM882.895 652.192C882.007 652.192 881.239 651.88 880.591 651.256C879.967 650.608 879.655 649.84 879.655 648.952C879.655 648.04 879.967 647.272 880.591 646.648C881.239 646.024 882.007 645.712 882.895 645.712C883.807 645.712 884.575 646.024 885.199 646.648C885.823 647.272 886.135 648.04 886.135 648.952C886.135 649.84 885.823 650.608 885.199 651.256C884.575 651.88 883.807 652.192 882.895 652.192ZM880.123 673V659.32H876.739V655.144H885.631V673H880.123ZM897.562 673.432C895.906 673.432 894.358 673.096 892.918 672.424C891.478 671.752 890.314 670.72 889.426 669.328C888.538 667.912 888.094 666.136 888.094 664C888.094 661.84 888.538 660.076 889.426 658.708C890.314 657.316 891.478 656.296 892.918 655.648C894.358 654.976 895.906 654.64 897.562 654.64C899.194 654.64 900.73 654.976 902.17 655.648C903.61 656.296 904.774 657.316 905.662 658.708C906.55 660.076 906.994 661.84 906.994 664C906.994 666.136 906.55 667.912 905.662 669.328C904.774 670.72 903.61 671.752 902.17 672.424C900.73 673.096 899.194 673.432 897.562 673.432ZM897.562 669.184C898.666 669.184 899.578 668.788 900.298 667.996C901.042 667.204 901.414 665.872 901.414 664C901.414 662.104 901.03 660.784 900.262 660.04C899.518 659.272 898.618 658.888 897.562 658.888C896.482 658.888 895.558 659.272 894.79 660.04C894.046 660.784 893.674 662.104 893.674 664C893.674 665.872 894.046 667.204 894.79 667.996C895.534 668.788 896.458 669.184 897.562 669.184ZM909.667 673V655.144H914.455L915.139 657.52C915.547 656.848 916.219 656.2 917.155 655.576C918.115 654.952 919.279 654.64 920.647 654.64C922.951 654.64 924.523 655.288 925.363 656.584C926.227 657.856 926.659 659.704 926.659 662.128V673H921.187V663.496C921.187 662.656 921.139 661.888 921.043 661.192C920.947 660.496 920.707 659.944 920.323 659.536C919.963 659.104 919.339 658.888 918.451 658.888C917.299 658.888 916.459 659.308 915.931 660.148C915.403 660.964 915.139 662.188 915.139 663.82V673H909.667ZM935.489 673.432C934.361 673.432 933.329 673.216 932.393 672.784C931.457 672.352 930.713 671.752 930.161 670.984C929.609 670.192 929.333 669.256 929.333 668.176C929.333 666.712 929.837 665.548 930.845 664.684C931.877 663.82 933.281 663.172 935.057 662.74C936.833 662.308 938.873 662.008 941.177 661.84C941.177 660.568 940.973 659.668 940.565 659.14C940.157 658.612 939.365 658.348 938.189 658.348C937.445 658.348 936.785 658.528 936.209 658.888C935.657 659.224 935.285 659.752 935.093 660.472L930.485 658.816C931.085 657.616 932.081 656.62 933.473 655.828C934.889 655.036 936.617 654.64 938.657 654.64C941.201 654.64 943.157 655.204 944.525 656.332C945.893 657.46 946.577 659.38 946.577 662.092V666.016C946.577 666.784 946.601 667.612 946.649 668.5C946.697 669.388 946.769 670.228 946.865 671.02C946.961 671.812 947.069 672.472 947.189 673H942.113L941.465 670.84C940.793 671.776 939.941 672.448 938.909 672.856C937.901 673.24 936.761 673.432 935.489 673.432ZM937.505 669.688C938.585 669.688 939.485 669.4 940.205 668.824C940.925 668.248 941.285 667.144 941.285 665.512V665.08C939.389 665.248 937.865 665.512 936.713 665.872C935.561 666.208 934.985 666.844 934.985 667.78C934.985 668.356 935.225 668.824 935.705 669.184C936.185 669.52 936.785 669.688 937.505 669.688ZM956.071 673C954.607 673 953.443 672.88 952.579 672.64C951.715 672.376 951.091 671.884 950.707 671.164C950.347 670.42 950.167 669.352 950.167 667.96V648.952H955.639V666.52C955.639 667.36 955.807 667.912 956.143 668.176C956.479 668.416 957.103 668.536 958.015 668.536H959.563V673H956.071ZM965.723 652.192C964.835 652.192 964.067 651.88 963.419 651.256C962.795 650.608 962.483 649.84 962.483 648.952C962.483 648.04 962.795 647.272 963.419 646.648C964.067 646.024 964.835 645.712 965.723 645.712C966.635 645.712 967.403 646.024 968.027 646.648C968.651 647.272 968.963 648.04 968.963 648.952C968.963 649.84 968.651 650.608 968.027 651.256C967.403 651.88 966.635 652.192 965.723 652.192ZM962.951 673V659.32H959.567V655.144H968.459V673H962.951ZM979.383 673C977.919 673 976.755 672.88 975.891 672.64C975.027 672.376 974.403 671.884 974.019 671.164C973.659 670.42 973.479 669.352 973.479 667.96V659.32H970.527V655.144H973.479V650.68H978.951V655.144H982.839V659.32H978.951V666.52C978.951 667.36 979.107 667.912 979.419 668.176C979.755 668.416 980.367 668.536 981.255 668.536H982.839V673H979.383ZM986.039 678.796V674.836H987.119C987.935 674.836 988.547 674.8 988.955 674.728C989.363 674.656 989.675 674.476 989.891 674.188C990.131 673.924 990.347 673.492 990.539 672.892L983.699 655.144H989.567L993.059 666.304L996.479 655.144H1002.35L995.507 673C994.931 674.512 994.343 675.688 993.743 676.528C993.167 677.368 992.423 677.956 991.511 678.292C990.599 678.628 989.363 678.796 987.803 678.796H986.039Z" fill="#1B2250"/>
<rect x="662" y="166" width="440" height="178" rx="10" fill="#6C9AEF"/>
<path d="M832.098 263V238.952H841.35C843.438 238.952 845.298 239.168 846.93 239.6C848.586 240.032 849.882 240.812 850.818 241.94C851.778 243.068 852.258 244.688 852.258 246.8C852.258 248.888 851.778 250.508 850.818 251.66C849.882 252.788 848.586 253.568 846.93 254C845.298 254.432 843.438 254.648 841.35 254.648H837.786V263H832.098ZM837.786 249.932H841.53C842.418 249.932 843.21 249.848 843.906 249.68C844.626 249.512 845.19 249.2 845.598 248.744C846.03 248.288 846.246 247.64 846.246 246.8C846.246 245.96 846.03 245.324 845.598 244.892C845.19 244.436 844.626 244.136 843.906 243.992C843.21 243.824 842.418 243.74 841.53 243.74H837.786V249.932ZM863.381 263.432C861.725 263.432 860.177 263.096 858.737 262.424C857.297 261.752 856.133 260.72 855.245 259.328C854.357 257.912 853.913 256.136 853.913 254C853.913 251.84 854.357 250.076 855.245 248.708C856.133 247.316 857.297 246.296 858.737 245.648C860.177 244.976 861.725 244.64 863.381 244.64C865.013 244.64 866.549 244.976 867.989 245.648C869.429 246.296 870.593 247.316 871.481 248.708C872.369 250.076 872.813 251.84 872.813 254C872.813 256.136 872.369 257.912 871.481 259.328C870.593 260.72 869.429 261.752 867.989 262.424C866.549 263.096 865.013 263.432 863.381 263.432ZM863.381 259.184C864.485 259.184 865.397 258.788 866.117 257.996C866.861 257.204 867.233 255.872 867.233 254C867.233 252.104 866.849 250.784 866.081 250.04C865.337 249.272 864.437 248.888 863.381 248.888C862.301 248.888 861.377 249.272 860.609 250.04C859.865 250.784 859.493 252.104 859.493 254C859.493 255.872 859.865 257.204 860.609 257.996C861.353 258.788 862.277 259.184 863.381 259.184ZM878.15 263L873.686 245.144H879.086L881.786 257.24L884.09 245.144H889.274L891.578 257.24L894.278 245.144H899.714L895.25 263H889.274L886.682 250.184L884.126 263H878.15ZM910.357 263.432C908.437 263.432 906.733 263.06 905.245 262.316C903.781 261.548 902.629 260.456 901.789 259.04C900.973 257.624 900.565 255.932 900.565 253.964C900.565 252.068 900.997 250.424 901.861 249.032C902.749 247.64 903.913 246.56 905.353 245.792C906.817 245.024 908.413 244.64 910.141 244.64C912.109 244.64 913.789 245.108 915.181 246.044C916.597 246.956 917.665 248.228 918.385 249.86C919.105 251.468 919.405 253.328 919.285 255.44H906.073C906.169 256.688 906.625 257.624 907.441 258.248C908.281 258.872 909.205 259.184 910.213 259.184C911.053 259.184 911.773 259.064 912.373 258.824C912.997 258.56 913.477 258.236 913.813 257.852L918.169 259.436C917.233 260.804 916.057 261.812 914.641 262.46C913.249 263.108 911.821 263.432 910.357 263.432ZM906.073 252.2H914.209C914.185 251.048 913.789 250.184 913.021 249.608C912.253 249.008 911.341 248.708 910.285 248.708C909.253 248.708 908.329 248.984 907.513 249.536C906.721 250.088 906.241 250.976 906.073 252.2ZM921.892 263V245.144H926.212L927.184 248.42C927.736 246.98 928.492 245.972 929.452 245.396C930.412 244.82 931.576 244.568 932.944 244.64V250.112C932.656 250.064 932.404 250.04 932.188 250.04C931.972 250.016 931.732 250.004 931.468 250.004C930.148 250.004 929.128 250.316 928.408 250.94C927.712 251.564 927.364 252.584 927.364 254V263H921.892Z" fill="white"/>
</svg>
